<?xml version="1.0" encoding="UTF-8" standalone="no"?>
<svg
   xmlns:dc="http://purl.org/dc/elements/1.1/"
   xmlns:cc="http://creativecommons.org/ns#"
   xmlns:rdf="http://www.w3.org/1999/02/22-rdf-syntax-ns#"
   xmlns:svg="http://www.w3.org/2000/svg"
   xmlns="http://www.w3.org/2000/svg"
   xmlns:sodipodi="http://sodipodi.sourceforge.net/DTD/sodipodi-0.dtd"
   xmlns:inkscape="http://www.inkscape.org/namespaces/inkscape"
   width="100mm"
   height="85.518715mm"
   viewBox="0 0 100 85.518716"
   version="1.1"
   id="svg8"
   inkscape:version="1.0.1 (3bc2e813f5, 2020-09-07)"
   sodipodi:docname="dessin.svg">
  <defs
     id="defs2" />
  <sodipodi:namedview
     id="base"
     pagecolor="#ffffff"
     bordercolor="#666666"
     borderopacity="1.0"
     inkscape:pageopacity="0.0"
     inkscape:pageshadow="2"
     inkscape:zoom="0.98994949"
     inkscape:cx="24.907719"
     inkscape:cy="365.88065"
     inkscape:document-units="mm"
     inkscape:current-layer="g38"
     inkscape:document-rotation="0"
     showgrid="false"
     inkscape:window-width="1920"
     inkscape:window-height="1034"
     inkscape:window-x="0"
     inkscape:window-y="0"
     inkscape:window-maximized="0" />
  <metadata
     id="metadata5">
    <rdf:RDF>
      <cc:Work
         rdf:about="">
        <dc:format>image/svg+xml</dc:format>
        <dc:type
           rdf:resource="http://purl.org/dc/dcmitype/StillImage" />
        <dc:title></dc:title>
      </cc:Work>
    </rdf:RDF>
  </metadata>
  <g
     inkscape:label="Calque 1"
     inkscape:groupmode="layer"
     id="layer1"
     transform="translate(-18.472436,-35.801945)">
    <g
       id="g38"
       transform="translate(18.472436,35.801945)">
      <path
         style="fill:#b9b9b9;fill-opacity:1;stroke-width:0.0846667"
         d="m 115.07712,147.59137 0.74083,-0.03 v -1.2667 c 0,-0.69669 0.0286,-1.26677 0.0635,-1.26686 0.0349,-8e-5 0.0444,0.58094 0.0212,1.29117 l -0.0423,1.29132 -0.762,0.006 -0.762,0.006 0.74083,-0.03 z m -7.85897,-4.00276 c 0,-1.04775 0.0122,-1.47637 0.027,-0.9525 0.0148,0.52388 0.0148,1.38113 0,1.905 -0.0149,0.52388 -0.027,0.0952 -0.027,-0.9525 z m 8.63297,-0.93133 c 0,-0.62865 0.0133,-0.88583 0.0296,-0.5715 0.0163,0.31432 0.0163,0.82867 0,1.143 -0.0163,0.31432 -0.0296,0.0572 -0.0296,-0.5715 z m 2.01534,-0.0423 c 0.002,-0.1397 0.0207,-0.1866 0.0422,-0.10423 0.0215,0.0824 0.02,0.19668 -0.003,0.254 -0.0232,0.0573 -0.0408,-0.0101 -0.039,-0.14977 z m -21.447974,-1.37584 c -0.105314,-0.13428 -0.102319,-0.13728 0.03197,-0.032 0.141033,0.1106 0.185884,0.18013 0.1162,0.18013 -0.01758,0 -0.08426,-0.0667 -0.148167,-0.14817 z m 22.182664,-0.93133 c -0.10531,-0.13429 -0.10232,-0.13728 0.032,-0.032 0.0815,0.0639 0.14817,0.13059 0.14817,0.14817 0,0.0697 -0.0695,0.0248 -0.18014,-0.1162 z m -18.4042,-0.15931 c 0.60644,-0.063 1.29349,-0.0684 1.25716,-0.01 -0.0217,0.0349 -0.37061,0.0574 -0.77532,0.0499 -0.40471,-0.007 -0.62154,-0.0254 -0.48184,-0.0399 z"
         id="path50" />
      <path
         style="fill:#a3a3a3;fill-opacity:1;stroke-width:0.0846667"
         d="m 113.38568,142.65728 c 0,-0.20955 0.0165,-0.29528 0.0367,-0.1905 0.0202,0.10477 0.0202,0.27622 0,0.381 -0.0202,0.10477 -0.0367,0.019 -0.0367,-0.1905 z m -0.79586,-2.18017 c -0.10532,-0.13428 -0.10232,-0.13728 0.032,-0.032 0.0815,0.0639 0.14816,0.13058 0.14816,0.14816 0,0.0697 -0.0695,0.0248 -0.18013,-0.1162 z m -13.975075,-1.43367 c 0.06112,-0.0245 0.134144,-0.0215 0.162278,0.007 0.02813,0.0281 -0.02187,0.0482 -0.111125,0.0445 -0.09863,-0.004 -0.118695,-0.0241 -0.05115,-0.0512 z"
         id="path48" />
      <path
         style="fill:#8c8c8c;fill-opacity:1;stroke-width:0.0846667"
         d="m 87.997087,144.09661 c 0,-0.76835 0.01284,-1.08267 0.02852,-0.6985 0.01569,0.38418 0.01569,1.01283 0,1.397 -0.01569,0.38418 -0.02852,0.0699 -0.02852,-0.6985 z m 14.397953,-2.58233 c -2e-5,-2.18863 0.0109,-3.09613 0.0243,-2.01666 0.0134,1.07947 0.0134,2.87017 3e-5,3.97933 -0.0134,1.10916 -0.0243,0.22596 -0.0244,-1.96267 z m 7.16426,1.17828 c 0.004,-0.0986 0.0241,-0.1187 0.0512,-0.0512 0.0245,0.0611 0.0215,0.13415 -0.007,0.16228 -0.0281,0.0281 -0.0482,-0.0219 -0.0445,-0.11112 z"
         id="path46" />
      <path
         style="fill:#767676;fill-opacity:1;stroke-width:0.0846667"
         d="m 102.80301,137.51494 c 0.22259,-0.0175 0.56549,-0.0173 0.762,5.1e-4 0.1965,0.0178 0.0144,0.0321 -0.40472,0.0318 -0.4191,-2.6e-4 -0.57988,-0.0148 -0.35728,-0.0323 z"
         id="path44" />
      <path
         style="fill:#606060;fill-opacity:1;stroke-width:0.0846667"
         d="m 89.521087,144.09661 c 0,-0.76835 0.01284,-1.08267 0.02852,-0.6985 0.01569,0.38418 0.01569,1.01283 0,1.397 -0.01569,0.38418 -0.02852,0.0699 -0.02852,-0.6985 z m 29.048533,0.84667 c 0.0843,-0.0931 0.17229,-0.16933 0.19558,-0.16933 0.0233,0 -0.0266,0.0762 -0.11091,0.16933 -0.0843,0.0931 -0.1723,0.16933 -0.19558,0.16933 -0.0233,0 0.0266,-0.0762 0.11091,-0.16933 z m -17.69533,-0.16933 c 0.0843,-0.0931 0.17229,-0.16934 0.19557,-0.16934 0.0233,0 -0.0266,0.0762 -0.11091,0.16934 -0.0843,0.0931 -0.17229,0.16933 -0.19558,0.16933 -0.0233,0 0.0266,-0.0762 0.11092,-0.16933 z m 7.9902,0.0212 c -0.10532,-0.13428 -0.10232,-0.13728 0.032,-0.032 0.0815,0.0639 0.14817,0.13058 0.14817,0.14816 0,0.0697 -0.0695,0.0248 -0.18013,-0.1162 z m -9.302537,-0.6458 c 0,-0.0176 0.06668,-0.0843 0.148167,-0.14816 0.134286,-0.10532 0.137281,-0.10232 0.03197,0.032 -0.110606,0.14104 -0.180133,0.18589 -0.180133,0.1162 z m 8.558017,-1.28742 c 0.004,-0.0986 0.0241,-0.11869 0.0512,-0.0511 0.0245,0.0611 0.0215,0.13414 -0.007,0.16228 -0.0281,0.0281 -0.0481,-0.0219 -0.0445,-0.11113 z m 0,-0.42333 c 0.004,-0.0986 0.0241,-0.1187 0.0512,-0.0512 0.0245,0.0611 0.0215,0.13415 -0.007,0.16228 -0.0281,0.0281 -0.0481,-0.0219 -0.0445,-0.11112 z m -4.24002,-1.08325 c 0,-0.0176 0.0667,-0.0842 0.14817,-0.14816 0.13429,-0.10532 0.13728,-0.10232 0.032,0.032 -0.11061,0.14104 -0.18014,0.18589 -0.18014,0.1162 z m 4.91067,-0.762 c 0,-0.0176 0.0667,-0.0842 0.14817,-0.14816 0.13428,-0.10532 0.13728,-0.10232 0.032,0.032 -0.1106,0.14104 -0.18013,0.18589 -0.18013,0.1162 z m -22.394333,-2.5927 -0.846667,-0.0519 0.820503,-0.0164 c 0.474259,-0.009 0.842585,0.0193 0.87283,0.0683 0.02878,0.0466 0.04055,0.0773 0.02616,0.0683 -0.01439,-0.009 -0.407164,-0.0397 -0.87283,-0.0683 z m 4.342004,-0.0625 c 0.246036,-0.0172 0.627036,-0.017 0.846667,4.2e-4 0.21963,0.0174 0.01833,0.0314 -0.447338,0.0312 -0.465667,-2.5e-4 -0.645365,-0.0144 -0.399329,-0.0316 z"
         id="path42" />
      <path
         style="fill:#403449;fill-opacity:1;stroke-width:0.136406"
         d="m 57.986921,64.954679 c 0,-21.688187 0.0048,-21.889917 0.614697,-24.42699 0.788745,-3.282479 2.845744,-7.192109 5.605873,-10.654822 1.248809,-1.566661 5.084022,-5.38491 7.010813,-6.979782 5.854142,-4.845661 13.415901,-9.519773 21.733667,-13.4341558 2.146254,-1.0100282 6.81753,-3.0479034 6.986485,-3.0479034 0.03383,0 0.06074,5.6625512 0.05961,12.5834642 l -0.0016,12.583465 -1.328059,0.535464 c -4.195213,1.691489 -9.166346,4.867201 -12.447907,7.952095 -1.7511,1.646153 -4.017735,4.271632 -5.462839,6.327681 -1.156042,1.6448 -2.599262,3.985867 -2.960389,4.802112 -0.09344,0.211247 -0.880561,1.067255 -1.749118,1.902238 -8.012576,7.702826 -12.380016,17.261635 -12.973592,28.394711 l -0.108588,2.035764 -2.318914,0.991404 c -1.275392,0.545276 -2.395636,0.994949 -2.489401,0.999282 -0.135655,0.0064 -0.170519,-4.193247 -0.170519,-20.564027 z m 7.833519,15.695376 c 0.445178,-6.828565 2.665542,-13.440664 6.361831,-18.945086 1.289456,-1.920233 2.718998,-3.71654 2.718998,-3.416586 0,0.04205 -0.208669,0.985636 -0.463706,2.096889 -1.242799,5.415184 -1.375731,10.899483 -0.410491,16.935744 l 0.0812,0.507672 -2.297503,1.244201 c -2.358129,1.277035 -5.838934,3.043537 -5.997143,3.043537 -0.04882,0 -0.04575,-0.659872 0.0064,-1.466371 z M 46.392395,70.999317 v -6.206473 h 1.091244 1.09126 v 0.501196 0.501196 l 0.306913,-0.280621 c 0.603308,-0.551655 1.229621,-0.780608 2.148397,-0.785377 1.476908,-0.0081 2.484761,0.77165 3.081188,2.382505 0.321253,0.867704 0.333803,3.226316 0.02256,4.240485 -0.249946,0.814344 -1.091485,1.903622 -1.722987,2.230175 -0.947904,0.490176 -2.254019,0.384053 -3.203519,-0.260288 L 48.71131,72.985428 v 2.110181 2.110197 h -1.159441 -1.159457 z m 4.957375,0.742747 c 0.991388,-0.779834 1.03007,-3.805311 0.06106,-4.774337 -0.344372,-0.344372 -0.505513,-0.401598 -1.130876,-0.401598 -0.585553,0 -0.811977,0.0696 -1.148953,0.353136 l -0.419691,0.353136 v 2.021845 2.021845 l 0.419691,0.353136 c 0.550849,0.463512 1.675185,0.500422 2.218785,0.07282 z m 24.183661,5.084184 c -0.03931,-0.06364 -0.205286,-1.369979 -0.368829,-2.903082 -0.552686,-5.180624 -0.185872,-9.805403 1.173474,-14.795096 0.303209,-1.112961 0.948871,-3.109754 1.220454,-3.774363 0.10891,-0.266395 1.949829,-1.855676 3.552821,-3.067091 3.17518,-2.399551 6.963059,-4.388271 10.908891,-5.727414 2.207056,-0.749031 6.380681,-1.680083 7.536433,-1.681211 L 100,44.877556 99.9989,46.139302 c -0.0032,3.47486 -0.734853,6.611245 -2.300081,9.858231 -3.146132,6.526389 -9.795237,13.127467 -19.387396,19.247344 -2.497714,1.593567 -2.699472,1.708422 -2.777996,1.581371 z M 19.793202,73.751294 C 18.923099,73.547491 18.106681,73.147375 17.47302,72.614183 16.944413,72.169392 16.386258,71.044218 16.384381,70.419596 l -0.0013,-0.443325 h 1.144271 1.144271 l 0.08697,0.463593 c 0.113518,0.605063 0.559508,1.159667 1.121366,1.39442 0.582956,0.243581 1.841486,0.241003 2.430192,-0.0048 0.564749,-0.235961 0.756832,-0.568926 0.756832,-1.311915 0,-0.791 -0.48365,-1.203456 -2.071188,-1.766325 -2.918151,-1.034646 -3.938121,-1.839807 -4.214405,-3.326816 -0.272852,-1.46853 0.643754,-2.885554 2.261612,-3.49632 1.137894,-0.429583 2.94931,-0.433449 4.056534,-0.0081 0.989511,0.379623 1.907063,1.272315 2.204261,2.14453 0.388001,1.138723 0.388403,1.138272 -1.009158,1.138272 h -1.227656 v -0.354651 c 0,-0.491545 -0.773897,-1.23592 -1.408777,-1.355012 -1.333122,-0.250107 -2.547002,0.382716 -2.547002,1.327801 0,0.861694 0.527418,1.277631 2.387108,1.882485 1.922839,0.625411 3.000163,1.305873 3.54829,2.241195 1.019582,1.739774 0.244468,3.862699 -1.672156,4.579798 -0.950772,0.35573 -2.5895,0.459871 -3.58121,0.227616 z m 19.742659,0.04076 c -1.732089,-0.436236 -2.858986,-1.758608 -3.082783,-3.617539 -0.324797,-2.697941 0.796799,-4.745289 2.913505,-5.318259 2.064894,-0.558938 4.053018,0.284165 4.938686,2.094344 0.347642,0.710509 0.379252,0.905645 0.379687,2.343709 5.48e-4,1.752776 -0.189127,2.374015 -1.010318,3.309304 -0.873311,0.994642 -2.758664,1.536019 -4.138777,1.188441 z m 1.963411,-1.983275 c 0.631968,-0.326811 0.930762,-1.128025 0.934355,-2.505512 0.0048,-1.917188 -0.588646,-2.737075 -1.981761,-2.737075 -0.534368,0 -0.704436,0.07024 -1.079918,0.445662 -0.991758,0.991758 -0.991758,3.573153 0,4.564911 0.375482,0.375482 0.54555,0.445661 1.079918,0.445661 0.348834,0 0.820161,-0.09618 1.047406,-0.213647 z M 3.9700936,71.601754 V 69.407796 L 3.0334379,67.611811 C 2.5182782,66.624048 1.6250077,64.908231 1.0483916,63.798878 L 0,61.781851 1.3279426,61.821 l 1.3279425,0.03915 1.1852386,2.591706 c 0.6518817,1.425449 1.2391471,2.58315 1.3050328,2.572694 0.065894,-0.0097 0.6549717,-1.176744 1.3090783,-2.591721 L 7.6445184,61.86015 8.9539462,61.821 10.263376,61.781851 8.2761872,65.654474 6.2889971,69.527081 v 2.134316 2.134299 H 5.1295445 3.9700936 Z M 27.159133,67.452828 v -6.342885 h 1.159457 1.159441 v 2.342679 2.342678 l 0.306914,-0.280621 c 1.155591,-1.056653 3.124414,-1.100733 4.132606,-0.09248 0.768751,0.768751 0.880319,1.418216 0.880319,5.124574 v 3.248985 h -1.159441 -1.159458 v -3.14631 c 0,-3.188423 -0.04737,-3.534857 -0.533804,-3.908373 -0.348126,-0.267281 -1.518732,-0.211473 -2.02381,0.0965 l -0.443326,0.270294 v 3.343958 3.343959 H 28.31859 27.159133 Z m -17.050766,1.159457 v -0.954848 h 2.318905 2.318904 v 0.954848 0.954832 H 12.427272 10.108367 Z M 52.326062,54.891403 c -5.063723,-2.140212 -10.52856,-5.13453 -14.663664,-8.034583 -2.617225,-1.835522 -4.199353,-3.159843 -6.346557,-5.312384 -3.216876,-3.224867 -4.91808,-5.85134 -6.020279,-9.294735 L 24.77492,30.623171 24.73432,15.311589 C 24.712087,6.8902141 24.724654,0 24.761226,0 c 0.216225,0 4.609909,1.9917415 6.694683,3.0348294 12.35369,6.1809855 19.783871,13.0121446 22.14403,20.3588226 l 0.48204,1.500462 0.04769,13.572403 c 0.02626,7.464841 0.03013,14.382854 0.0081,15.373388 l -0.03899,1.80098 -1.773285,-0.749482 z m 28.592747,-6.092117 c 0.758745,-1.440352 3.728591,-5.05143 5.865291,-7.131698 2.606044,-2.537202 5.49714,-4.649236 8.714498,-6.366214 1.411594,-0.753316 3.595306,-1.765873 4.194488,-1.944947 L 100,33.264756 v 4.442387 4.442388 h -0.453797 c -0.927992,0 -4.875724,0.858714 -7.218387,1.570147 -1.407856,0.427536 -3.39656,1.167883 -4.753425,1.769547 -2.15998,0.957796 -5.412396,2.705175 -6.225178,3.344506 -0.456778,0.35929 -0.63047,0.345419 -0.430404,-0.03432 z"
         id="path40" />
    </g>
  </g>
</svg>
