<?xml version="1.0" encoding="UTF-8" standalone="no"?>
<svg
   xmlns:dc="http://purl.org/dc/elements/1.1/"
   xmlns:cc="http://creativecommons.org/ns#"
   xmlns:rdf="http://www.w3.org/1999/02/22-rdf-syntax-ns#"
   xmlns:svg="http://www.w3.org/2000/svg"
   xmlns="http://www.w3.org/2000/svg"
   xmlns:sodipodi="http://sodipodi.sourceforge.net/DTD/sodipodi-0.dtd"
   xmlns:inkscape="http://www.inkscape.org/namespaces/inkscape"
   version="1.1"
   id="Capa_1"
   x="0px"
   y="0px"
   viewBox="0 0 100 100"
   xml:space="preserve"
   sodipodi:docname="discount.svg"
   width="100"
   height="100"
   inkscape:version="1.0.1 (3bc2e813f5, 2020-09-07)"><metadata
   id="metadata363"><rdf:RDF><cc:Work
       rdf:about=""><dc:format>image/svg+xml</dc:format><dc:type
         rdf:resource="http://purl.org/dc/dcmitype/StillImage" /></cc:Work></rdf:RDF></metadata><defs
   id="defs361" /><sodipodi:namedview
   pagecolor="#ffffff"
   bordercolor="#666666"
   borderopacity="1"
   objecttolerance="10"
   gridtolerance="10"
   guidetolerance="10"
   inkscape:pageopacity="0"
   inkscape:pageshadow="2"
   inkscape:window-width="1920"
   inkscape:window-height="1000"
   id="namedview359"
   showgrid="false"
   inkscape:zoom="6.3593378"
   inkscape:cx="-31.025441"
   inkscape:cy="63.394147"
   inkscape:window-x="-11"
   inkscape:window-y="-11"
   inkscape:window-maximized="1"
   inkscape:current-layer="Capa_1" />
<g
   id="g308"
   transform="matrix(0.20354742,0,0,0.19531026,-2.1085467,3.6620728e-4)">
	<g
   id="g306">
		<path
   d="m 477.958,262.633 c -2.06,-4.215 -2.06,-9.049 0,-13.263 l 19.096,-39.065 c 10.632,-21.751 2.208,-47.676 -19.178,-59.023 l -38.41,-20.38 c -4.144,-2.198 -6.985,-6.11 -7.796,-10.729 L 424.158,77.344 C 419.975,53.498 397.917,37.474 373.95,40.865 l -43.053,6.09 c -4.647,0.656 -9.242,-0.838 -12.613,-4.099 L 287.033,12.624 c -17.401,-16.834 -44.661,-16.835 -62.061,0 L 193.72,42.859 c -3.372,3.262 -7.967,4.753 -12.613,4.099 l -43.053,-6.09 C 114.079,37.475 92.029,53.501 87.846,77.347 l -7.512,42.827 c -0.811,4.62 -3.652,8.531 -7.795,10.73 l -38.41,20.38 C 12.743,162.63 4.319,188.557 14.951,210.308 l 19.095,39.064 c 2.06,4.215 2.06,9.049 0,13.263 L 14.95,301.699 c -10.632,21.751 -2.208,47.676 19.178,59.023 l 38.41,20.38 c 4.144,2.198 6.985,6.11 7.796,10.729 l 7.512,42.829 c 3.808,21.708 22.422,36.932 43.815,36.93 2.107,0 4.245,-0.148 6.394,-0.452 l 43.053,-6.09 c 4.643,-0.659 9.241,0.838 12.613,4.099 l 31.251,30.232 c 8.702,8.418 19.864,12.626 31.03,12.625 11.163,-10e-4 22.332,-4.209 31.03,-12.625 l 31.252,-30.232 c 3.372,-3.261 7.968,-4.751 12.613,-4.099 l 43.053,6.09 c 23.978,3.392 46.025,-12.633 50.208,-36.479 l 7.513,-42.827 c 0.811,-4.62 3.652,-8.531 7.795,-10.73 l 38.41,-20.38 c 21.386,-11.346 29.81,-37.273 19.178,-59.024 z m -13.923,72.002 -38.41,20.38 c -12.246,6.499 -20.645,18.057 -23.04,31.713 l -7.512,42.828 c -1.415,8.068 -8.874,13.487 -16.987,12.342 l -43.053,-6.09 c -13.73,-1.945 -27.316,2.474 -37.281,12.113 L 266.5,478.152 c -5.886,5.694 -15.109,5.694 -20.997,0 L 214.252,447.92 c -8.422,-8.147 -19.432,-12.562 -30.926,-12.562 -2.106,0 -4.229,0.148 -6.355,0.449 l -43.053,6.09 c -8.106,1.146 -15.571,-4.274 -16.987,-12.342 l -7.513,-42.829 C 107.022,373.07 98.624,361.511 86.377,355.014 l -38.41,-20.38 c -7.236,-3.839 -10.086,-12.61 -6.489,-19.969 L 60.574,275.6 c 6.088,-12.456 6.088,-26.742 0,-39.198 L 41.478,197.337 c -3.597,-7.359 -0.747,-16.13 6.489,-19.969 l 38.41,-20.38 c 12.246,-6.499 20.645,-18.057 23.04,-31.713 l 7.512,-42.828 c 1.416,-8.068 8.874,-13.488 16.987,-12.342 l 43.053,6.09 c 13.725,1.943 27.316,-2.474 37.281,-12.113 L 245.502,33.85 c 5.886,-5.694 15.109,-5.694 20.997,0 l 31.251,30.232 c 9.965,9.64 23.554,14.056 37.281,12.113 l 43.053,-6.09 c 8.107,-1.147 15.572,4.274 16.987,12.342 l 7.512,42.829 c 2.396,13.656 10.794,25.215 23.041,31.712 l 38.41,20.38 c 7.236,3.839 10.086,12.61 6.489,19.969 l -19.096,39.064 c -6.088,12.455 -6.088,26.743 0,39.198 l 19.096,39.064 c 3.598,7.361 0.748,16.133 -6.488,19.972 z"
   id="path304" />
	</g>
</g>
<g
   id="g314"
   transform="matrix(0.20354742,0,0,0.19531026,-2.1085467,3.6620728e-4)">
	<g
   id="g312">
		<path
   d="m 363.886,148.116 c -5.765,-5.766 -15.115,-5.766 -20.881,0 l -194.889,194.89 c -5.766,5.766 -5.766,15.115 0,20.881 2.883,2.883 6.662,4.325 10.44,4.325 3.778,0 7.558,-1.441 10.44,-4.325 L 363.885,168.998 c 5.768,-5.767 5.768,-15.115 0.001,-20.882 z"
   id="path310" />
	</g>
</g>
<g
   id="g320"
   transform="matrix(0.20354742,0,0,0.19531026,-2.1085467,3.6620728e-4)">
	<g
   id="g318">
		<path
   d="m 196.941,123.116 c -29.852,0 -54.139,24.287 -54.139,54.139 0,29.852 24.287,54.139 54.139,54.139 29.852,0 54.139,-24.287 54.139,-54.139 0,-29.852 -24.287,-54.139 -54.139,-54.139 z m 0,78.747 c -13.569,0 -24.608,-11.039 -24.608,-24.609 0,-13.569 11.039,-24.608 24.608,-24.608 13.569,0 24.609,11.039 24.609,24.608 -0.001,13.57 -11.04,24.609 -24.609,24.609 z"
   id="path316" />
	</g>
</g>
<g
   id="g326"
   transform="matrix(0.20354742,0,0,0.19531026,-2.1085467,3.6620728e-4)">
	<g
   id="g324">
		<path
   d="m 315.061,280.61 c -29.852,0 -54.139,24.287 -54.139,54.139 0,29.852 24.287,54.139 54.139,54.139 29.852,0 54.139,-24.287 54.139,-54.139 0,-29.852 -24.287,-54.139 -54.139,-54.139 z m 0,78.747 c -13.569,0 -24.609,-11.039 -24.609,-24.608 0,-13.569 11.039,-24.608 24.609,-24.608 13.569,0 24.608,11.039 24.608,24.608 0,13.569 -11.039,24.608 -24.608,24.608 z"
   id="path322" />
	</g>
</g>
<g
   id="g328">
</g>
<g
   id="g330">
</g>
<g
   id="g332">
</g>
<g
   id="g334">
</g>
<g
   id="g336">
</g>
<g
   id="g338">
</g>
<g
   id="g340">
</g>
<g
   id="g342">
</g>
<g
   id="g344">
</g>
<g
   id="g346">
</g>
<g
   id="g348">
</g>
<g
   id="g350">
</g>
<g
   id="g352">
</g>
<g
   id="g354">
</g>
<g
   id="g356">
</g>
<path
   style="fill:#ffffff;stroke:#ffffff;stroke-width:0.594327"
   d="m 36.138906,44.986726 c -4.046743,-0.723504 -7.382741,-3.543191 -8.615731,-7.282278 -0.358743,-1.087902 -0.4216,-1.548128 -0.4216,-3.086882 0,-1.538753 0.06286,-1.99898 0.4216,-3.086881 1.540158,-4.670582 6.360138,-7.807971 11.329454,-7.374492 4.723467,0.412034 8.626677,3.617651 9.762525,8.017738 0.312149,1.209214 0.312149,3.678057 0,4.887271 -0.945677,3.663398 -3.81228,6.540004 -7.620518,7.647107 -1.207172,0.35094 -3.662617,0.49173 -4.85573,0.278417 z m 4.139053,-6.061044 c 0.981136,-0.480416 1.770231,-1.261456 2.319782,-2.296104 0.51585,-0.971196 0.51585,-3.052827 0,-4.024023 -0.550235,-1.035937 -1.337486,-1.81429 -2.341513,-2.315048 -0.786439,-0.392237 -1.097622,-0.456109 -2.249325,-0.461689 -1.070469,-0.0052 -1.493174,0.06543 -2.122862,0.354659 -0.937588,0.430648 -1.835731,1.262348 -2.41096,2.232602 -0.375434,0.633254 -0.419524,0.864618 -0.419524,2.201487 0,1.691209 0.149157,2.087746 1.223862,3.253663 1.089736,1.182224 2.297011,1.653249 3.987088,1.555585 0.811542,-0.0469 1.369281,-0.185713 2.013452,-0.501132 z"
   id="path365" /><path
   style="fill:#ffffff;stroke:#ffffff;stroke-width:0.594327"
   d="m 29.146734,71.664523 c -1.546221,-0.572522 -2.289581,-2.227676 -1.671094,-3.720834 0.293129,-0.707676 40.254441,-39.072595 41.116209,-39.47368 2.032611,-0.946019 4.33505,0.57038 4.128584,2.719108 -0.04425,0.460538 -0.222127,0.966996 -0.449777,1.280633 -0.55368,0.762813 -40.203507,38.760308 -40.729808,39.032469 -0.670809,0.346889 -1.706059,0.417071 -2.394114,0.162304 z"
   id="path367" /><path
   style="fill:#ffffff;stroke:#ffffff;stroke-width:0.594327"
   d="m 59.13521,75.514037 c -6.477085,-1.748794 -9.830986,-8.606624 -7.06138,-14.438629 1.736004,-3.655529 5.217441,-5.932656 9.378473,-6.134241 4.457086,-0.215926 8.514793,2.076084 10.371484,5.858371 0.812954,1.656076 1.092913,2.825632 1.090087,4.553948 -0.003,1.831224 -0.314932,3.12078 -1.137232,4.701346 -1.248497,2.39977 -3.513543,4.318314 -6.172526,5.22827 -1.711133,0.585585 -4.753158,0.694181 -6.468906,0.230935 z m 4.714007,-5.612917 c 1.430136,-0.504581 2.753252,-1.951943 3.097967,-3.388879 0.519928,-2.167307 -0.582856,-4.425528 -2.679685,-5.487308 -1.044306,-0.528809 -2.929515,-0.602709 -4.100953,-0.160757 -3.135623,1.182988 -4.198866,5.141284 -2.03985,7.594055 1.424414,1.61822 3.641295,2.177189 5.722521,1.442889 z"
   id="path369" /><path
   style="fill:#ffffff;stroke:#ffffff;stroke-width:0.594327"
   d="m 47.520472,99.591238 c -1.903989,-0.566847 -2.766074,-1.187337 -6.658778,-4.792705 -2.045813,-1.894802 -4.002709,-3.57808 -4.348657,-3.740617 -0.345948,-0.162538 -0.872205,-0.297077 -1.169463,-0.298976 -0.297256,-0.0019 -2.667785,0.286951 -5.267844,0.64189 -3.725383,0.50856 -5.01068,0.626935 -6.063994,0.558488 -3.23694,-0.210344 -6.004832,-2.04176 -7.396852,-4.894231 C 16.056742,85.921364 15.916361,85.351109 15.127815,81.024305 14.247493,76.193922 14.051374,75.487606 13.427876,74.902036 13.238153,74.723855 11.083171,73.555737 8.639027,72.306218 6.1948832,71.056701 3.8115204,69.738416 3.3426655,69.376698 0.79256303,67.409308 -0.41287477,64.035525 0.29641589,60.850846 0.40274738,60.373424 1.4845698,58.034561 2.8124012,55.411373 c 2.0887267,-4.12637 2.3294453,-4.684221 2.3294453,-5.398347 0,-0.712011 -0.2405297,-1.274276 -2.2693171,-5.304772 -1.2481244,-2.47959 -2.38031778,-4.89269 -2.51598523,-5.362444 -0.9465064,-3.277317 0.60520849,-7.223865 3.60593423,-9.171138 0.518922,-0.336746 2.7125466,-1.500778 4.8747214,-2.586738 2.1621752,-1.085961 4.1274242,-2.112752 4.3672222,-2.28176 0.770666,-0.543162 1.010482,-1.323644 1.910455,-6.217578 0.477631,-2.597296 1.014898,-5.093971 1.193926,-5.54817 1.007836,-2.5569 3.314767,-4.5637931 6.045543,-5.2592634 1.470513,-0.3745085 3.298921,-0.2872888 8.274572,0.3947187 2.628922,0.3603437 4.825551,0.5894466 5.095358,0.531433 0.897672,-0.1930168 1.425533,-0.5893475 4.147834,-3.1142876 1.501542,-1.392684 3.232518,-2.9779617 3.846614,-3.5228394 2.66577,-2.36529525 5.939808,-3.07086737 9.199768,-1.98259815 1.706807,0.56978115 2.561367,1.19461105 5.953302,4.35287635 1.693004,1.5763734 3.393877,3.130523 3.779718,3.4536657 1.199364,1.0044707 1.349907,1.0109092 6.704495,0.2867466 5.099095,-0.6896096 6.899209,-0.7754457 8.348064,-0.3980668 2.718193,0.7079993 5.164351,2.906595 6.055799,5.442928 0.169119,0.481174 0.665286,2.848935 1.102594,5.261691 0.870402,4.80227 1.058395,5.47439 1.697883,6.070355 0.236304,0.220221 2.39448,1.405995 4.795947,2.635053 2.401467,1.229058 4.771997,2.540775 5.267844,2.914926 1.738198,1.311588 2.90886,3.354105 3.208649,5.598301 0.304873,2.282238 0.06622,3.033019 -2.714525,8.539798 -2.246259,4.448325 -2.374406,4.750885 -2.299392,5.428925 0.05662,0.511802 0.74237,2.027939 2.387359,5.278281 1.850537,3.65648 2.355184,4.79395 2.546414,5.739591 0.570497,2.821091 -0.430502,5.768178 -2.645209,7.787912 -0.863148,0.787159 -3.112687,2.04985 -7.923575,4.44759 -2.329626,1.161083 -3.248143,1.910844 -3.434419,2.803424 -0.05166,0.247559 -0.449107,2.396066 -0.883205,4.774458 -0.434099,2.378392 -0.868875,4.572017 -0.96617,4.874721 -1.144353,3.560335 -4.683948,6.121806 -8.471338,6.13039 -0.564066,0.0013 -3.07612,-0.280226 -5.582342,-0.625565 -5.060911,-0.697357 -5.514636,-0.726873 -6.277018,-0.408329 -0.291932,0.121977 -2.147163,1.725358 -4.122738,3.563069 -3.812563,3.546506 -4.821903,4.315937 -6.387407,4.86919 -1.373748,0.485486 -4.206273,0.578417 -5.53875,0.181718 z m 3.972524,-5.730082 c 0.352623,-0.194596 2.185877,-1.796041 4.073896,-3.558765 3.703853,-3.458054 4.584532,-4.122236 6.220151,-4.691048 1.827841,-0.635661 2.945176,-0.622348 8.194496,0.09764 5.119774,0.702216 5.837125,0.749083 6.598207,0.431083 0.63365,-0.264756 1.438309,-1.164735 1.66087,-1.857614 0.09267,-0.2885 0.526213,-2.490083 0.96343,-4.892404 0.877291,-4.820333 1.046715,-5.445092 1.827884,-6.740423 1.103475,-1.829777 2.088755,-2.534861 7.080761,-5.067128 2.496046,-1.266156 4.653011,-2.39154 4.793255,-2.500858 0.655476,-0.510926 1.081628,-1.408011 1.081628,-2.276912 0,-0.796539 -0.171689,-1.198341 -2.325547,-5.442461 -1.301151,-2.563882 -2.409435,-4.951369 -2.515985,-5.419982 -0.26173,-1.151103 -0.238663,-2.921072 0.05264,-4.039478 0.133695,-0.513289 1.265888,-2.937758 2.515985,-5.387708 2.026507,-3.971565 2.272903,-4.539479 2.272903,-5.238763 0,-0.822422 -0.375548,-1.757082 -0.887449,-2.20867 -0.160556,-0.141637 -2.414781,-1.344593 -5.009391,-2.673234 -4.360819,-2.233075 -4.794748,-2.492985 -5.739591,-3.437828 -0.983214,-0.983214 -1.813486,-2.300351 -2.180723,-3.45948 -0.0959,-0.302704 -0.562786,-2.667344 -1.037519,-5.254756 -0.710667,-3.873311 -0.933255,-4.81032 -1.25999,-5.304049 -0.391915,-0.592224 -1.167422,-1.09209 -2.007538,-1.293993 -0.241594,-0.05806 -2.492003,0.183215 -5.110595,0.547931 -6.369776,0.887178 -7.59413,0.865228 -9.868134,-0.17691 C 59.62642,13.437804 59.461519,13.303752 55.469416,9.6115545 53.56763,7.8526401 51.780223,6.2670156 51.497401,6.0879446 50.837271,5.6699806 49.327461,5.6504763 48.577933,6.0502296 48.294666,6.2013071 46.398761,7.8717617 44.364812,9.7623508 38.38825,15.317662 38.032656,15.421523 29.208478,14.189157 c -4.387246,-0.612713 -4.673277,-0.634604 -5.427384,-0.415379 -0.856687,0.249045 -1.680296,0.963813 -1.95727,1.698613 -0.08963,0.237784 -0.554121,2.572933 -1.032202,5.189219 -0.790923,4.328313 -0.925478,4.871596 -1.493471,6.03009 -0.485531,0.990303 -0.878513,1.514559 -1.768615,2.359411 -1.054495,1.000887 -1.504409,1.268371 -5.728087,3.405479 -4.8236846,2.440701 -5.3270241,2.790405 -5.7169803,3.971984 -0.1065987,0.322998 -0.1481888,0.850301 -0.093862,1.190041 0.053653,0.335528 1.0515676,2.473581 2.2175874,4.751227 2.3398199,4.570492 2.6840519,5.419 2.8339689,6.98554 0.190945,1.995249 -0.114534,2.892547 -2.767722,8.129768 -2.3254379,4.590263 -2.3814811,4.724247 -2.2920228,5.479582 0.1174951,0.992062 0.5099212,1.655153 1.2898339,2.179459 0.3417995,0.22978 2.567411,1.414328 4.9458029,2.632331 4.715203,2.414709 5.521001,2.97948 6.593963,4.621601 0.893947,1.368145 1.142992,2.255742 2.060062,7.342071 0.960073,5.324829 1.143281,5.7824 2.550676,6.370447 0.826791,0.345456 1.212354,0.321575 6.749679,-0.418076 4.603476,-0.61491 5.074917,-0.651743 6.2151,-0.485559 1.539063,0.224321 2.791127,0.686083 3.884991,1.432786 0.465368,0.317675 2.412257,2.027373 4.326419,3.799328 1.914162,1.771957 3.708381,3.343447 3.987156,3.492202 0.750133,0.400271 2.114081,0.367349 2.906895,-0.07017 z"
   id="path371" /></svg>
