<?xml version="1.0" encoding="UTF-8" standalone="no"?>
<svg
   xmlns:dc="http://purl.org/dc/elements/1.1/"
   xmlns:cc="http://creativecommons.org/ns#"
   xmlns:rdf="http://www.w3.org/1999/02/22-rdf-syntax-ns#"
   xmlns:svg="http://www.w3.org/2000/svg"
   xmlns="http://www.w3.org/2000/svg"
   xmlns:sodipodi="http://sodipodi.sourceforge.net/DTD/sodipodi-0.dtd"
   xmlns:inkscape="http://www.inkscape.org/namespaces/inkscape"
   width="99.999863mm"
   height="99.999664mm"
   viewBox="0 0 99.999863 99.999664"
   version="1.1"
   id="svg8"
   inkscape:version="1.0.1 (3bc2e813f5, 2020-09-07)"
   sodipodi:docname="loupe1.svg">
  <defs
     id="defs2" />
  <sodipodi:namedview
     id="base"
     pagecolor="#ffffff"
     bordercolor="#666666"
     borderopacity="1.0"
     inkscape:pageopacity="0.0"
     inkscape:pageshadow="2"
     inkscape:zoom="0.49497475"
     inkscape:cx="-578.41834"
     inkscape:cy="528.81823"
     inkscape:document-units="mm"
     inkscape:current-layer="svg8"
     inkscape:document-rotation="0"
     showgrid="false"
     inkscape:window-width="1898"
     inkscape:window-height="1024"
     inkscape:window-x="0"
     inkscape:window-y="0"
     inkscape:window-maximized="0" />
  <metadata
     id="metadata5">
    <rdf:RDF>
      <cc:Work
         rdf:about="">
        <dc:format>image/svg+xml</dc:format>
        <dc:type
           rdf:resource="http://purl.org/dc/dcmitype/StillImage" />
        <dc:title></dc:title>
      </cc:Work>
    </rdf:RDF>
  </metadata>
  <g
     inkscape:label="Calque 1"
     inkscape:groupmode="layer"
     id="layer1"
     transform="translate(-262.17088,-37.130035)" />
  <g
     inkscape:label="Calque 1"
     id="layer1-1"
     transform="matrix(0.99661114,0,0,0.99740743,0.15903082,0.12388632)"
     style="fill:#000000;stroke:#ffffff">
    <g
       id="g98"
       transform="scale(0.1953125)"
       style="fill:#000000;stroke:#ffffff">
      <g
         id="g14"
         style="fill:#000000;stroke:#ffffff">
        <g
           id="g12"
           style="fill:#000000;stroke:#ffffff">
          <path
             d="m 310,190 c -5.52,0 -10,4.48 -10,10 0,5.52 4.48,10 10,10 5.52,0 10,-4.48 10,-10 0,-5.52 -4.48,-10 -10,-10 z"
             id="path10"
             style="fill:#000000;stroke:#ffffff" />
        </g>
      </g>
      <g
         id="g20"
         style="fill:#000000;stroke:#ffffff">
        <g
           id="g18"
           style="fill:#000000;stroke:#ffffff">
          <path
             d="M 500.281,443.719 366.801,310.239 C 388.546,277.485 400,239.555 400,200 400,89.72 310.28,0 200,0 89.72,0 0,89.72 0,200 c 0,110.28 89.72,200 200,200 39.556,0 77.486,-11.455 110.239,-33.198 l 36.895,36.895 c 0.005,0.005 0.01,0.01 0.016,0.016 l 96.568,96.568 C 451.276,507.838 461.319,512 472,512 c 10.681,0 20.724,-4.162 28.278,-11.716 C 507.837,492.731 512,482.687 512,472 c 0,-10.687 -4.163,-20.731 -11.719,-28.281 z M 305.536,345.727 c 0,0.001 -10e-4,0.001 -0.002,0.002 C 274.667,368.149 238.175,380 200,380 100.748,380 20,299.252 20,200 20,100.748 100.748,20 200,20 c 99.252,0 180,80.748 180,180 0,38.175 -11.851,74.667 -34.272,105.535 -11.217,15.453 -24.739,28.976 -40.192,40.192 z m 20.98,9.066 c 10.35,-8.467 19.811,-17.928 28.277,-28.277 l 28.371,28.371 c -8.628,10.183 -18.094,19.65 -28.277,28.277 z m 159.623,131.346 c -3.78,3.78 -8.801,5.861 -14.139,5.861 -5.338,0 -10.359,-2.081 -14.139,-5.861 l -88.795,-88.795 c 10.127,-8.691 19.587,-18.15 28.277,-28.277 l 88.798,88.798 c 3.778,3.774 5.859,8.793 5.859,14.135 0,5.342 -2.081,10.361 -5.861,14.139 z"
             id="path16"
             style="fill:#000000;stroke:#ffffff" />
        </g>
      </g>
      <g
         id="g26"
         style="fill:#000000;stroke:#ffffff">
        <g
           id="g24"
           style="fill:#000000;stroke:#ffffff">
          <path
             d="m 200,40 c -88.225,0 -160,71.775 -160,160 0,88.225 71.775,160 160,160 88.225,0 160,-71.775 160,-160 C 360,111.775 288.225,40 200,40 Z m 0,300 C 122.804,340 60,277.196 60,200 60,122.804 122.804,60 200,60 c 77.196,0 140,62.804 140,140 0,77.196 -62.804,140 -140,140 z"
             id="path22"
             style="fill:#000000;stroke:#ffffff" />
        </g>
      </g>
      <g
         id="g32"
         style="fill:#000000;stroke:#ffffff">
        <g
           id="g30"
           style="fill:#000000;stroke:#ffffff">
          <path
             d="M 312.065,157.073 C 303.454,134.661 288.461,115.499 268.705,101.66 248.479,87.49 224.721,80 200,80 c -5.522,0 -10,4.478 -10,10 0,5.522 4.478,10 10,10 41.099,0 78.631,25.818 93.396,64.247 1.528,3.976 5.317,6.416 9.337,6.416 1.192,0 2.405,-0.215 3.584,-0.668 5.155,-1.981 7.729,-7.766 5.748,-12.922 z"
             id="path28"
             style="fill:#000000;stroke:#ffffff" />
        </g>
      </g>
      <g
         id="g34"
         style="fill:#000000;stroke:#ffffff" />
      <g
         id="g36"
         style="fill:#000000;stroke:#ffffff" />
      <g
         id="g38"
         style="fill:#000000;stroke:#ffffff" />
      <g
         id="g40"
         style="fill:#000000;stroke:#ffffff" />
      <g
         id="g42"
         style="fill:#000000;stroke:#ffffff" />
      <g
         id="g44"
         style="fill:#000000;stroke:#ffffff" />
      <g
         id="g46"
         style="fill:#000000;stroke:#ffffff" />
      <g
         id="g48"
         style="fill:#000000;stroke:#ffffff" />
      <g
         id="g50"
         style="fill:#000000;stroke:#ffffff" />
      <g
         id="g52"
         style="fill:#000000;stroke:#ffffff" />
      <g
         id="g54"
         style="fill:#000000;stroke:#ffffff" />
      <g
         id="g56"
         style="fill:#000000;stroke:#ffffff" />
      <g
         id="g58"
         style="fill:#000000;stroke:#ffffff" />
      <g
         id="g60"
         style="fill:#000000;stroke:#ffffff" />
      <g
         id="g62"
         style="fill:#000000;stroke:#ffffff" />
    </g>
    <path
       style="fill:#000000;stroke:#ffffff;stroke-width:1.90895"
       d="m 225.87129,154.08092 c -6.50642,-2.8329 -4.88152,-12.61852 2.20843,-13.29977 4.49335,-0.43175 7.6777,2.42324 7.68151,6.88701 0.004,5.26414 -5.0302,8.52869 -9.88994,6.41276 z"
       id="path100"
       transform="scale(0.26458333)" />
    <path
       style="fill:#000000;stroke:#ffffff;stroke-width:1.90895"
       d="m 221.55474,125.37398 c -2.52066,-0.6138 -4.09424,-2.4693 -5.9871,-7.05976 -4.86887,-11.8077 -15.19644,-24.238273 -26.31842,-31.677647 -11.54162,-7.720068 -22.55737,-11.574108 -36.31861,-12.706669 -8.01042,-0.659264 -9.21565,-1.026637 -10.98702,-3.349022 -2.65393,-3.479475 -1.26456,-8.879422 2.71212,-10.540984 2.1749,-0.908731 7.293,-0.888613 14.50672,0.05702 26.33248,3.451887 49.32252,18.366946 63.83912,41.416382 2.41082,3.8279 7.21818,14.08005 7.54411,16.08853 0.34601,2.13219 -1.23134,5.7656 -2.97245,6.84701 -1.73418,1.0771 -3.97798,1.42201 -6.01847,0.92514 z"
       id="path102"
       transform="scale(0.26458333)" />
    <path
       style="fill:#000000;stroke:#ffffff;stroke-width:1.90895"
       d="M 133.36283,264.64816 C 84.768024,258.47158 44.901401,223.14512 33.285633,175.96812 24.684631,141.03548 32.052467,105.52954 53.996061,76.16361 58.701683,69.86633 69.906396,58.66207 76.268051,53.89252 115.04706,24.818568 166.28934,21.770317 207.31468,46.096944 c 53.23736,31.567941 73.21016,98.120606 46.05479,153.462206 -16.70274,34.03954 -48.47737,57.67238 -86.54926,64.37228 -7.97742,1.40386 -25.15599,1.77186 -33.45738,0.71673 z m 23.35585,-13.90012 c 48.19208,-4.5065 86.27227,-40.64817 93.44015,-88.68347 1.09098,-7.31117 1.09466,-21.35578 0.008,-28.73147 C 245.07676,98.802436 224.45177,70.354181 193.24619,54.822567 164.85581,40.692125 131.10173,40.571236 102.67552,54.49819 74.548767,68.278432 54.757063,92.667507 47.13544,122.93955 c -2.010627,7.98593 -2.83291,15.08895 -2.832949,24.47149 -7.3e-5,17.02987 3.047854,30.39686 10.379661,45.52106 5.250308,10.83044 11.356582,19.37118 19.998694,27.97183 21.813398,21.70873 51.918694,32.66058 82.037834,29.84411 z"
       id="path104"
       transform="scale(0.26458333)" />
    <path
       style="fill:#000000;stroke:#ffffff;stroke-width:1.90895"
       d="m 340.56644,376.59318 c -7.73497,-2.22656 -5.37591,-0.078 -60.61228,-55.20363 l -51.01584,-50.91355 -2.26971,1.52522 c -4.28871,2.88196 -14.90353,8.51844 -20.79776,11.04362 -33.39854,14.30848 -70.1258,15.83946 -104.71056,4.36485 C 78.742373,279.97183 60.762658,268.78648 43.539362,251.56318 31.219579,239.2434 23.422391,228.48635 15.868084,213.38769 9.2425681,200.14539 4.9104001,187.10052 2.449324,172.98159 -0.50965029,156.00627 -0.32718056,136.28532 2.9446898,119.4435 11.649677,74.634936 41.005172,36.221571 82.21993,15.707262 97.636772,8.0336545 111.89752,3.7163318 130.20218,1.1810425 c 7.31272,-1.01285046 29.01555,-0.861347 36.58144,0.2553684 17.78851,2.6255603 31.57156,6.8714222 46.4045,14.2948771 43.22636,21.633545 72.82323,62.189078 80.23464,109.942652 1.47224,9.48601 1.83842,28.37232 0.73463,37.89019 -0.91103,7.85584 -2.76664,17.5187 -4.66974,24.31721 -3.15767,11.28016 -9.87391,26.51466 -16.19235,36.72917 l -2.81001,4.54272 51.23572,51.33742 c 48.11254,48.20805 51.33418,51.54541 52.851,54.74937 4.15972,8.78653 4.16237,17.41604 0.008,26.07048 -3.55212,7.39982 -10.83225,13.35685 -18.88769,15.45503 -3.93198,1.02414 -11.25934,0.94066 -15.12588,-0.17235 z m 14.67866,-14.95886 c 3.10656,-1.5199 6.26768,-5.04412 7.36147,-8.20702 0.36162,-1.04569 0.65209,-3.399 0.6455,-5.22957 -0.0226,-6.26835 0.89619,-5.19555 -36.22371,-42.29644 l -33.5201,-33.50293 -10.61023,10.61023 -10.61024,10.61023 33.63425,33.56731 c 18.49884,18.46202 34.20246,33.86049 34.89694,34.21882 4.58974,2.36819 9.88253,2.45234 14.42612,0.22937 z M 272.66504,273.0426 c 5.5386,-5.52509 10.07017,-10.35696 10.07017,-10.73749 0,-0.38053 -4.63867,-5.3264 -10.30815,-10.99083 l -10.30815,-10.29895 -8.75848,8.84409 c -4.81716,4.86425 -9.64368,9.57961 -10.72559,10.47857 l -1.9671,1.63448 10.54889,10.55787 c 5.80189,5.80683 10.7355,10.55788 10.96357,10.55788 0.22807,0 4.94625,-4.52053 10.48484,-10.04562 z m -103.06692,5.83181 c 28.86814,-5.1 53.7722,-18.29757 73.81984,-39.11981 35.70174,-37.0812 46.68829,-89.92719 28.84502,-138.74638 C 269.63141,93.808237 263.23542,81.277093 258.72877,74.491716 228.32164,28.709634 174.10338,6.3636607 120.28386,17.431844 88.952854,23.875178 60.308362,42.226823 41.075408,68.178263 35.09972,76.241386 32.609583,80.326282 28.143922,89.391466 21.950652,101.96365 17.852875,115.30035 15.72891,129.79757 c -1.108195,7.56404 -1.251898,26.91161 -0.253221,34.09265 3.355183,24.12559 11.851502,45.01166 25.904576,63.67991 17.39459,23.10715 43.156485,40.72178 70.528355,48.22357 13.86056,3.79876 22.00746,4.77424 37.99153,4.54895 10.5131,-0.14818 13.47594,-0.36902 19.69797,-1.46824 z"
       id="path106"
       transform="scale(0.26458333)" />
  </g>
</svg>
