<?xml version="1.0" encoding="UTF-8" standalone="no"?>
<svg
   xmlns:dc="http://purl.org/dc/elements/1.1/"
   xmlns:cc="http://creativecommons.org/ns#"
   xmlns:rdf="http://www.w3.org/1999/02/22-rdf-syntax-ns#"
   xmlns:svg="http://www.w3.org/2000/svg"
   xmlns="http://www.w3.org/2000/svg"
   xmlns:sodipodi="http://sodipodi.sourceforge.net/DTD/sodipodi-0.dtd"
   xmlns:inkscape="http://www.inkscape.org/namespaces/inkscape"
   version="1.1"
   id="Capa_1"
   x="0px"
   y="0px"
   width="101.02917"
   height="95.123962"
   viewBox="0 0 101.02917 95.123963"
   xml:space="preserve"
   sodipodi:docname="panier.svg"
   inkscape:version="1.0.1 (3bc2e813f5, 2020-09-07)"><metadata
   id="metadata461"><rdf:RDF><cc:Work
       rdf:about=""><dc:format>image/svg+xml</dc:format><dc:type
         rdf:resource="http://purl.org/dc/dcmitype/StillImage" /></cc:Work></rdf:RDF></metadata><defs
   id="defs459" /><sodipodi:namedview
   pagecolor="#ffffff"
   bordercolor="#666666"
   borderopacity="1"
   objecttolerance="10"
   gridtolerance="10"
   guidetolerance="10"
   inkscape:pageopacity="0"
   inkscape:pageshadow="2"
   inkscape:window-width="1920"
   inkscape:window-height="1000"
   id="namedview457"
   showgrid="false"
   inkscape:zoom="2.5761712"
   inkscape:cx="221.79374"
   inkscape:cy="120.47269"
   inkscape:window-x="-11"
   inkscape:window-y="-11"
   inkscape:window-maximized="1"
   inkscape:current-layer="Capa_1" />
<g
   id="g424"
   transform="matrix(0.22378751,0,0,0.22378751,0.51432882,-2.4106545)">
	<path
   d="M 444.274,93.36 C 441.716,89.694 437.6,87.428 433.129,87.237 L 155.942,75.289 c -7.953,-0.348 -14.599,5.792 -14.939,13.708 -0.338,7.913 5.792,14.599 13.707,14.939 L 413.131,115.076 362.32,273.61 H 136.205 L 95.354,51.179 C 94.456,46.304 91.109,42.237 86.493,40.426 L 19.586,14.141 c -7.374,-2.887 -15.695,0.735 -18.591,8.1 -2.891,7.369 0.73,15.695 8.1,18.591 l 59.491,23.371 41.572,226.335 c 1.253,6.804 7.183,11.746 14.104,11.746 h 6.896 l -15.747,43.74 c -1.318,3.664 -0.775,7.733 1.468,10.916 2.24,3.184 5.883,5.078 9.772,5.078 h 11.045 c -6.844,7.617 -11.045,17.646 -11.045,28.675 0,23.718 19.299,43.012 43.012,43.012 23.713,0 43.012,-19.294 43.012,-43.012 0,-11.028 -4.201,-21.058 -11.044,-28.675 h 93.777 c -6.847,7.617 -11.047,17.646 -11.047,28.675 0,23.718 19.294,43.012 43.012,43.012 23.719,0 43.012,-19.294 43.012,-43.012 0,-11.028 -4.2,-21.058 -11.042,-28.675 h 13.432 c 6.6,0 11.948,-5.349 11.948,-11.947 0,-6.6 -5.349,-11.948 -11.948,-11.948 H 143.651 l 12.902,-35.843 h 216.221 c 6.235,0 11.752,-4.028 13.651,-9.96 l 59.739,-186.387 c 1.372,-4.254 0.668,-8.905 -1.89,-12.573 z m -274.61,316.454 c -10.543,0 -19.117,-8.573 -19.117,-19.116 0,-10.543 8.574,-19.117 19.117,-19.117 10.543,0 19.116,8.574 19.116,19.117 0,10.543 -8.573,19.116 -19.116,19.116 z m 157.709,0 c -10.543,0 -19.116,-8.573 -19.116,-19.116 0,-10.543 8.573,-19.117 19.116,-19.117 10.543,0 19.116,8.574 19.116,19.117 0,10.543 -8.573,19.116 -19.116,19.116 z"
   id="path422" />
</g>
<g
   id="g426"
   transform="translate(0.51446425,0.53172571)">
</g>
<g
   id="g428"
   transform="translate(0.51446425,0.53172571)">
</g>
<g
   id="g430"
   transform="translate(0.51446425,0.53172571)">
</g>
<g
   id="g432"
   transform="translate(0.51446425,0.53172571)">
</g>
<g
   id="g434"
   transform="translate(0.51446425,0.53172571)">
</g>
<g
   id="g436"
   transform="translate(0.51446425,0.53172571)">
</g>
<g
   id="g438"
   transform="translate(0.51446425,0.53172571)">
</g>
<g
   id="g440"
   transform="translate(0.51446425,0.53172571)">
</g>
<g
   id="g442"
   transform="translate(0.51446425,0.53172571)">
</g>
<g
   id="g444"
   transform="translate(0.51446425,0.53172571)">
</g>
<g
   id="g446"
   transform="translate(0.51446425,0.53172571)">
</g>
<g
   id="g448"
   transform="translate(0.51446425,0.53172571)">
</g>
<g
   id="g450"
   transform="translate(0.51446425,0.53172571)">
</g>
<g
   id="g452"
   transform="translate(0.51446425,0.53172571)">
</g>
<g
   id="g454"
   transform="translate(0.51446425,0.53172571)">
</g>
<path
   style="fill:#ffffff;stroke:#ffffff;stroke-width:1.46711"
   d="m 36.761944,94.233123 c -6.184877,-1.144047 -9.501731,-7.965321 -6.596249,-13.565511 0.569321,-1.097342 1.035128,-2.066381 1.035128,-2.153428 0,-0.08704 -0.758977,-0.158262 -1.686616,-0.158262 -1.9218,0 -2.971459,-0.84477 -2.971459,-2.391441 0,-0.777188 1.849685,-6.439906 3.307958,-10.127137 0.213271,-0.539254 0.06524,-0.679303 -0.718034,-0.679303 -1.453617,0 -2.875881,-0.63639 -3.333579,-1.491609 C 25.577616,63.252601 23.281182,51.409817 20.695906,37.349134 18.11063,23.288453 15.966737,11.774317 15.931698,11.762165 12.597234,10.605686 2.0932358,6.2898493 1.6375466,5.8890467 -0.24211568,4.235784 1.025092,0.76984748 3.5224414,0.7336757 4.8194991,0.71488902 20.132464,6.8445907 20.895906,7.6881849 21.491875,8.3467238 23.808419,20.259603 30.618818,57.688495 l 0.230056,1.264349 25.471083,-0.09983 25.471082,-0.09983 5.631377,-17.562788 C 90.519671,31.530864 92.945791,23.519613 92.813797,23.387617 92.681798,23.255621 79.506098,22.584887 63.534462,21.897097 44.926099,21.095761 34.198729,20.487946 33.669985,20.20497 32.049397,19.337658 31.874187,16.844993 33.337201,15.470563 l 0.971859,-0.913014 32.043526,1.379377 c 32.005458,1.377738 32.044655,1.380437 32.993276,2.271619 0.522361,0.490734 0.949748,1.311462 0.949748,1.823842 0,1.715811 -13.554061,43.325308 -14.383086,44.154511 -0.756786,0.756949 -1.421152,0.78208 -25.67629,0.971143 l -24.899404,0.194087 -1.435637,3.970904 -1.435638,3.970905 26.37706,0.104911 c 25.598574,0.101814 26.393316,0.12715 26.927911,0.858406 0.302973,0.414421 0.550857,1.217069 0.550857,1.783658 0,1.568169 -1.105606,2.31501 -3.427078,2.31501 -1.104038,0 -2.007344,0.104042 -2.007344,0.231207 0,0.127165 0.322638,0.694868 0.716975,1.261562 4.174886,5.999683 -0.310026,14.499956 -7.650462,14.499956 -7.232516,0 -11.780013,-7.288999 -8.496388,-13.618528 0.587112,-1.131718 1.067476,-2.128888 1.067476,-2.215935 0,-0.08704 -4.716301,-0.158262 -10.48067,-0.158262 -5.764368,0 -10.48067,0.117255 -10.48067,0.260564 0,0.14331 0.278627,0.568441 0.619167,0.944736 0.93743,1.035851 1.673802,3.429683 1.692834,5.503151 0.05293,5.766624 -5.360521,10.232864 -11.113279,9.16875 z m 3.980434,-5.451346 c 1.164387,-0.5683 2.103634,-2.364373 2.103634,-4.022667 0,-2.062491 -2.042551,-4.074729 -4.134042,-4.072699 -3.201273,0.0031 -5.36187,2.730024 -4.421254,5.580118 0.930567,2.819646 3.653192,3.881089 6.451662,2.515248 z m 35.525593,-0.05968 c 1.261651,-0.787914 2.006218,-2.586171 1.777374,-4.292685 -0.620789,-4.629315 -7.125093,-5.098799 -8.469569,-0.611337 -0.42897,1.431776 -0.397963,1.779408 0.269986,3.026903 1.300046,2.428025 4.188301,3.27222 6.422209,1.877119 z"
   id="path463" /></svg>
